<svg width="35" height="34" viewBox="0 0 35 34" fill="none" xmlns="http://www.w3.org/2000/svg">
<path d="M20.9701 24.35C20.9701 24.35 24.1701 16.85 23.9001 10.91C23.6301 4.96999 16.4901 -1.98001 14.4801 1.30999C12.4701 4.59999 14.4801 6.97999 14.4801 6.97999C14.4801 6.97999 11.7401 5.14999 11.1001 8.52999C10.4601 11.92 14.0201 26.36 20.9701 24.35Z" fill="url(#paint0_linear_514_280)"/>
<path d="M18.96 23.07C18.96 23.07 18.32 9.81002 10.55 4.69002C2.78 -0.429979 0.489997 5.33002 5.52 9.17002C-0.0600023 10.82 3.14002 15.84 6.89002 15.02C2.78002 17.67 5.70002 21.05 8.26002 20.51C4.60002 22.7 9.36001 25.36 12.1 23.98C8.81001 25.53 2.32001 22.33 0.670007 23.98C-0.979993 25.63 2.32002 27.45 2.32002 27.45C2.32002 27.45 0.220006 27.72 1.31001 29.92C2.41001 32.11 15.75 35.13 24.53 30.93C33.31 26.72 33.54 18.94 30.2 17.85C25.73 16.4 23.71 23.07 18.96 23.07Z" fill="url(#paint1_linear_514_280)"/>
<path d="M32.11 20.39L34.78 21.43L32.04 22.75C32.03 22.75 30.72 21.18 32.11 20.39Z" fill="#172232"/>
<defs>
<linearGradient id="paint0_linear_514_280" x1="11.7862" y1="-20.4171" x2="21.0364" y2="30.151" gradientUnits="userSpaceOnUse">
<stop stop-color="#FED67E"/>
<stop offset="1" stop-color="#FA992E"/>
</linearGradient>
<linearGradient id="paint1_linear_514_280" x1="0.215108" y1="17.8594" x2="32.1924" y2="17.8594" gradientUnits="userSpaceOnUse">
<stop stop-color="#FED67E"/>
<stop offset="1" stop-color="#FA992E"/>
</linearGradient>
</defs>
</svg>
